<svg width="42" height="43" viewBox="0 0 42 43" fill="none" xmlns="http://www.w3.org/2000/svg">
<g clip-path="url(#clip0_195_108)">
<path fill-rule="evenodd" clip-rule="evenodd" d="M1.3125 4.17993C1.3125 3.45506 1.90013 2.86743 2.625 2.86743H5.59453C5.59872 2.86743 5.60291 2.86745 5.6071 2.86749C6.2193 2.87335 6.81019 3.09302 7.27756 3.48848C7.74416 3.8833 8.05833 4.42854 8.16595 5.03015C8.16612 5.03114 8.1663 5.03213 8.16648 5.03312L12.5469 29.1174H30.1875C30.9124 29.1174 31.5 29.7051 31.5 30.4299C31.5 31.1548 30.9124 31.7424 30.1875 31.7424H11.4516C10.8173 31.7424 10.2737 31.2888 10.1602 30.6648L5.5829 5.49761L5.58197 5.49243H2.625C1.90013 5.49243 1.3125 4.90481 1.3125 4.17993Z" fill="#0266E0"/>
<path fill-rule="evenodd" clip-rule="evenodd" d="M13.125 31.7424C12.0377 31.7424 11.1562 32.6239 11.1562 33.7112C11.1562 34.7985 12.0377 35.6799 13.125 35.6799C14.2123 35.6799 15.0938 34.7985 15.0938 33.7112C15.0938 32.6239 14.2123 31.7424 13.125 31.7424ZM8.53125 33.7112C8.53125 31.1741 10.5879 29.1174 13.125 29.1174C15.6621 29.1174 17.7188 31.1741 17.7188 33.7112C17.7188 36.2482 15.6621 38.3049 13.125 38.3049C10.5879 38.3049 8.53125 36.2482 8.53125 33.7112Z" fill="#0266E0"/>
<path fill-rule="evenodd" clip-rule="evenodd" d="M30.1875 31.7424C29.1002 31.7424 28.2188 32.6239 28.2188 33.7112C28.2188 34.7985 29.1002 35.6799 30.1875 35.6799C31.2748 35.6799 32.1562 34.7985 32.1562 33.7112C32.1562 32.6239 31.2748 31.7424 30.1875 31.7424ZM25.5938 33.7112C25.5938 31.1741 27.6504 29.1174 30.1875 29.1174C32.7246 29.1174 34.7812 31.1741 34.7812 33.7112C34.7812 36.2482 32.7246 38.3049 30.1875 38.3049C27.6504 38.3049 25.5938 36.2482 25.5938 33.7112Z" fill="#0266E0"/>
<path fill-rule="evenodd" clip-rule="evenodd" d="M6.5625 10.7424C6.5625 10.0176 7.15013 9.42993 7.875 9.42993H35.4375C35.8268 9.42993 36.196 9.60276 36.4454 9.90172C36.6948 10.2007 36.7985 10.5949 36.7287 10.9779L34.7279 21.9493C34.7278 21.9502 34.7276 21.9511 34.7275 21.9519C34.5646 22.8587 34.0877 23.6793 33.3802 24.2695C32.6727 24.8599 31.7799 25.1822 30.8584 25.1799H10.2539C9.52903 25.1799 8.94141 24.5923 8.94141 23.8674C8.94141 23.1426 9.52903 22.5549 10.2539 22.5549H30.8602L30.8642 22.5549C31.169 22.5559 31.4644 22.4493 31.6985 22.254C31.9325 22.0587 32.0903 21.7872 32.1439 21.4871L32.1447 21.4827L33.864 12.0549H7.875C7.15013 12.0549 6.5625 11.4673 6.5625 10.7424Z" fill="#0266E0"/>
</g>
<defs>
<clipPath id="clip0_195_108">
<rect width="42" height="42" fill="white" transform="translate(0 0.242432)"/>
</clipPath>
</defs>
</svg>
