<svg width="36" height="37" viewBox="0 0 36 37" fill="none" xmlns="http://www.w3.org/2000/svg">
<g clip-path="url(#clip0_195_121)">
<path d="M23 27.4846C23.5523 27.4846 24 27.9323 24 28.4846V29.4846C24 30.0369 23.5523 30.4846 23 30.4846H8.5C7.94772 30.4846 7.5 30.0369 7.5 29.4846V28.4846C7.5 27.9323 7.94772 27.4846 8.5 27.4846H23ZM30.5 16.9846C31.0523 16.9846 31.5 17.4323 31.5 17.9846V18.9846C31.5 19.5369 31.0523 19.9846 30.5 19.9846H5.5C4.94771 19.9846 4.5 19.5369 4.5 18.9846V17.9846C4.5 17.4323 4.94772 16.9846 5.5 16.9846H30.5ZM27.5 6.48462C28.0523 6.48462 28.5 6.93233 28.5 7.48462V8.48462C28.5 9.0369 28.0523 9.48462 27.5 9.48462H13C12.4477 9.48462 12 9.0369 12 8.48462V7.48462C12 6.93233 12.4477 6.48462 13 6.48462H27.5Z" fill="white"/>
</g>
<defs>
<clipPath id="clip0_195_121">
<rect width="36" height="36" fill="white" transform="translate(0 0.484619)"/>
</clipPath>
</defs>
</svg>
