<svg width="36" height="37" viewBox="0 0 36 37" fill="none" xmlns="http://www.w3.org/2000/svg">
<path d="M18.4304 27.2056C18.2499 27.2056 18.0724 27.1594 17.915 27.0713C15.3987 25.6635 13.3029 23.6107 11.8433 21.1241C10.3837 18.6376 9.61296 15.807 9.61035 12.9237C9.61035 12.8065 9.61176 12.6893 9.61457 12.5721C9.67082 9.93541 10.6559 7.71283 12.4636 6.14557C14.0562 4.76322 16.1754 4.00244 18.4304 4.00244C20.6853 4.00244 22.8038 4.76322 24.3985 6.14486C26.2062 7.71213 27.1913 9.93471 27.2475 12.5714C27.2504 12.6886 27.2518 12.8058 27.2518 12.923C27.2491 15.8066 26.478 18.6375 25.018 21.1242C23.558 23.6109 21.4618 25.6637 18.945 27.0713C18.7878 27.1593 18.6106 27.2055 18.4304 27.2056ZM18.4304 6.11182C16.6831 6.11182 15.0554 6.68908 13.8453 7.73814C12.5002 8.90463 11.7661 10.5914 11.7232 12.6164C11.7232 12.7184 11.7232 12.821 11.7232 12.9237C11.7255 15.3308 12.3432 17.6973 13.5177 19.7984C14.6923 21.8995 16.3846 23.6654 18.4339 24.9281C20.4831 23.6653 22.1753 21.8995 23.3497 19.7984C24.5241 17.6973 25.1417 15.3307 25.1438 12.9237C25.1438 12.821 25.1438 12.7184 25.1403 12.6164C25.0974 10.5914 24.3633 8.90463 23.0182 7.73814C21.8054 6.68908 20.1797 6.11182 18.4304 6.11182Z" fill="white"/>
<path d="M18.452 18.0227C17.4489 18.0227 16.4684 17.7252 15.6344 17.168C14.8003 16.6107 14.1503 15.8186 13.7664 14.8919C13.3826 13.9651 13.2821 12.9454 13.4778 11.9616C13.6735 10.9778 14.1565 10.0741 14.8658 9.36485C15.5751 8.65556 16.4788 8.17254 17.4626 7.97685C18.4464 7.78116 19.4661 7.88159 20.3928 8.26545C21.3196 8.64931 22.1116 9.29936 22.6689 10.1334C23.2262 10.9674 23.5237 11.948 23.5237 12.951C23.5222 14.2957 22.9874 15.5848 22.0366 16.5356C21.0858 17.4864 19.7966 18.0212 18.452 18.0227ZM18.452 9.98947C17.8661 9.98947 17.2934 10.1632 16.8062 10.4888C16.319 10.8143 15.9394 11.277 15.7152 11.8183C15.491 12.3596 15.4324 12.9553 15.5467 13.5299C15.6611 14.1046 15.9433 14.6324 16.3576 15.0466C16.772 15.4609 17.2999 15.743 17.8745 15.8572C18.4492 15.9714 19.0448 15.9126 19.5861 15.6883C20.1274 15.464 20.59 15.0842 20.9154 14.597C21.2408 14.1097 21.4144 13.5369 21.4143 12.951C21.4133 12.1657 21.1009 11.4129 20.5456 10.8577C19.9902 10.3025 19.2373 9.99022 18.452 9.98947Z" fill="white"/>
<path d="M18.4303 32.2681C15.5847 32.2681 12.8931 31.7013 10.8513 30.6727C8.57807 29.5259 7.32861 27.922 7.32861 26.1509C7.32861 23.8017 9.52588 21.7732 13.2067 20.7256C13.4738 20.6556 13.7577 20.6932 13.9974 20.8303C14.2371 20.9673 14.4135 21.1929 14.4887 21.4586C14.5639 21.7242 14.532 22.0088 14.3997 22.2512C14.2674 22.4935 14.0453 22.6743 13.7812 22.7548C11.141 23.5064 9.43518 24.8395 9.43518 26.1509C9.43518 28.0493 13.128 30.1587 18.4274 30.1587C23.7269 30.1587 27.4218 28.0493 27.4218 26.1509C27.4218 24.8395 25.716 23.5064 23.0758 22.7548C22.9426 22.7169 22.8181 22.6531 22.7095 22.5671C22.6009 22.4811 22.5103 22.3745 22.4429 22.2535C22.3068 22.0091 22.2733 21.7206 22.3498 21.4515C22.4264 21.1824 22.6067 20.9548 22.8511 20.8186C23.0955 20.6825 23.384 20.649 23.6531 20.7256C27.3339 21.7732 29.5312 23.8017 29.5312 26.1509C29.5312 27.922 28.2803 29.5259 26.0085 30.6727C23.9667 31.7013 21.2751 32.2681 18.4303 32.2681Z" fill="white"/>
</svg>
