<svg width="36" height="36" viewBox="0 0 36 36" fill="none" xmlns="http://www.w3.org/2000/svg">
<path d="M7.89489 9.5127L9.88757 7.52003C10.1562 7.25176 10.4797 7.04475 10.8358 6.91318C11.1919 6.78162 11.5723 6.72861 11.9508 6.75779C12.3294 6.78697 12.6971 6.89766 13.0289 7.08225C13.3606 7.26685 13.6486 7.521 13.8729 7.82727L15.8129 10.4608C16.055 10.7928 16.216 11.177 16.2831 11.5824C16.3502 11.9879 16.3214 12.4034 16.1992 12.7958L16.085 13.1294C15.848 13.9106 15.5408 14.885 15.3477 15.5346C15.2876 15.738 15.3032 15.9563 15.3915 16.1491C15.8674 17.1119 16.4826 17.9993 17.2174 18.7826C17.2997 18.8642 17.365 18.9613 17.4096 19.0682C17.4541 19.1752 17.4771 19.2899 17.4771 19.4058C17.4771 19.5217 17.4541 19.6364 17.4096 19.7434C17.365 19.8504 17.2997 19.9475 17.2174 20.0291C17.053 20.1926 16.8305 20.2844 16.5986 20.2844C16.3667 20.2844 16.1442 20.1926 15.9797 20.0291C15.1075 19.1177 14.3793 18.0787 13.8202 16.9479C13.5268 16.3559 13.4734 15.6735 13.671 15.043C13.8553 14.411 14.1714 13.4103 14.4172 12.629L14.5225 12.2866C14.5556 12.1551 14.5577 12.0177 14.5288 11.8852C14.4999 11.7527 14.4406 11.6287 14.3557 11.5229L12.4157 8.88944C12.3411 8.78763 12.2455 8.7031 12.1353 8.6416C12.0251 8.58011 11.9029 8.5431 11.7771 8.5331C11.6513 8.5231 11.5248 8.54035 11.4063 8.58367C11.2877 8.62698 11.1799 8.69535 11.0902 8.7841L10.502 9.37225L12.2577 12.0935C12.3427 12.226 12.3905 12.379 12.3961 12.5363C12.4017 12.6937 12.3649 12.8497 12.2895 12.9879C12.2141 13.1261 12.1029 13.2415 11.9676 13.322C11.8323 13.4025 11.6778 13.4451 11.5203 13.4454C11.3743 13.4461 11.2303 13.4103 11.1016 13.3413C10.9728 13.2724 10.8633 13.1723 10.7829 13.0504L9.22919 10.6451L9.08874 10.7768C8.88486 10.9986 8.7271 11.2587 8.62463 11.542C8.52215 11.8253 8.47701 12.1262 8.49182 12.4271C8.49182 13.9721 9.53643 16.8162 14.3996 21.5916C19.4998 26.5952 23.5466 28.6142 25.2232 26.92L27.2686 24.901C27.3577 24.8119 27.4265 24.7046 27.4705 24.5864C27.5144 24.4683 27.5324 24.342 27.5231 24.2163C27.513 24.0898 27.4756 23.9671 27.4135 23.8564C27.3513 23.7458 27.266 23.65 27.1632 23.5755L24.5297 21.6355C24.42 21.5552 24.2931 21.5015 24.159 21.4787C24.0249 21.4558 23.8874 21.4644 23.7573 21.5038L22.0982 22.0218L23.9679 23.3473C24.0629 23.4138 24.1437 23.4985 24.2057 23.5964C24.2678 23.6943 24.3098 23.8036 24.3294 23.9179C24.349 24.0321 24.3457 24.1491 24.3199 24.2621C24.294 24.3751 24.246 24.4819 24.1786 24.5762C24.097 24.6909 23.989 24.7842 23.8637 24.8484C23.7384 24.9126 23.5995 24.9457 23.4588 24.9449C23.2798 24.9445 23.1052 24.8894 22.9584 24.7869L19.6227 22.4431C19.5271 22.3773 19.4454 22.2931 19.3826 22.1955C19.3197 22.0979 19.2768 21.9887 19.2564 21.8744C19.236 21.7601 19.2385 21.6429 19.2637 21.5296C19.2889 21.4162 19.3363 21.309 19.4032 21.2142C19.5195 21.0606 19.6829 20.9496 19.8685 20.8981L23.2042 19.8272C23.5966 19.7049 24.0121 19.6761 24.4176 19.7432C24.823 19.8103 25.2072 19.9713 25.5392 20.2134L28.1727 22.1534C28.479 22.3778 28.7332 22.6657 28.9177 22.9975C29.1023 23.3292 29.213 23.697 29.2422 24.0755C29.2714 24.454 29.2184 24.8344 29.0868 25.1905C28.9553 25.5467 28.7482 25.8701 28.48 26.1388L26.4873 28.1402C26.1283 28.4988 25.7008 28.7815 25.2303 28.9716C24.7598 29.1616 24.2558 29.255 23.7485 29.2463C21.5363 29.2463 18.2006 27.7101 13.2145 22.8206C8.96585 18.6509 6.79761 15.1484 6.78005 12.4095C6.75859 11.8762 6.84641 11.3441 7.03813 10.8459C7.22985 10.3478 7.52141 9.89405 7.89489 9.5127Z" fill="white"/>
</svg>
