<svg width="42" height="43" viewBox="0 0 42 43" fill="none" xmlns="http://www.w3.org/2000/svg">
<path d="M21 21.2424C22.8171 21.2424 24.5934 20.7036 26.1043 19.6941C27.6152 18.6845 28.7928 17.2496 29.4881 15.5708C30.1835 13.892 30.3655 12.0447 30.011 10.2625C29.6565 8.48034 28.7814 6.84329 27.4965 5.55839C26.2116 4.2735 24.5746 3.39847 22.7924 3.04397C21.0102 2.68947 19.1629 2.87141 17.4841 3.56679C15.8053 4.26217 14.3704 5.43976 13.3609 6.95063C12.3513 8.46151 11.8125 10.2378 11.8125 12.0549C11.8125 14.4916 12.7805 16.8285 14.5035 18.5515C16.2264 20.2745 18.5633 21.2424 21 21.2424ZM21 5.49244C22.2979 5.49244 23.5667 5.87732 24.6459 6.59842C25.7251 7.31951 26.5663 8.34444 27.063 9.54358C27.5597 10.7427 27.6896 12.0622 27.4364 13.3352C27.1832 14.6082 26.5582 15.7775 25.6404 16.6953C24.7226 17.6131 23.5533 18.2381 22.2803 18.4913C21.0073 18.7446 19.6878 18.6146 18.4886 18.1179C17.2895 17.6212 16.2646 16.7801 15.5435 15.7009C14.8224 14.6217 14.4375 13.3529 14.4375 12.0549C14.4375 10.3145 15.1289 8.64526 16.3596 7.41455C17.5903 6.18384 19.2595 5.49244 21 5.49244Z" fill="#0266E0"/>
<path d="M22.3125 23.8674H19.6875C15.8584 23.8674 12.1862 25.3885 9.47865 28.0961C6.77109 30.8036 5.25 34.4759 5.25 38.3049C5.25 38.653 5.38828 38.9869 5.63442 39.233C5.88056 39.4792 6.2144 39.6174 6.5625 39.6174H35.4375C35.7856 39.6174 36.1194 39.4792 36.3656 39.233C36.6117 38.9869 36.75 38.653 36.75 38.3049C36.75 34.4759 35.2289 30.8036 32.5214 28.0961C29.8138 25.3885 26.1416 23.8674 22.3125 23.8674ZM7.95375 36.9924C8.27649 34.1058 9.65148 31.4392 11.816 29.5023C13.9806 27.5653 16.7829 26.4938 19.6875 26.4924H22.3125C25.2171 26.4938 28.0194 27.5653 30.184 29.5023C32.3485 31.4392 33.7235 34.1058 34.0463 36.9924H7.95375Z" fill="#0266E0"/>
</svg>
